<svg width="40" height="26" viewBox="0 0 40 26" fill="none" xmlns="http://www.w3.org/2000/svg">
<path d="M0.0078125 9.05725C9.90802 -0.815386 23.1838 0.0173506 23.1838 0.0173506L38.4604 3.31181C24.1378 2.47478 15.5952 13.2123 15.5952 13.2123L0.0078125 9.05725ZM18.5219 2.15499C16.1283 2.15499 14.229 2.71301 14.229 3.3998C14.229 4.08659 16.1715 4.64246 18.5219 4.64246C20.8723 4.64246 22.8148 4.10806 22.8148 3.3998C22.8148 2.69155 20.8636 2.15499 18.5132 2.15499H18.5219Z" fill="#48CE65"/>
<path d="M38.0114 4.98633C29.8896 5.84482 21.2412 11.7963 15.5951 20.6709L2.16602 17.0932L2.88689 19.7717L15.5951 23.1563C23.1276 11.3241 31.8084 6.95871 37.8624 5.54435L38.0114 4.98633Z" fill="#48CE65"/>
<path d="M38.3121 3.85762C26.0572 3.5829 17.4779 12.728 15.5958 15.6855L0.720703 11.7235L1.44374 14.4149L15.5958 18.1858C19.3599 12.2687 27.9738 4.71826 38.161 4.42852L38.3121 3.85762Z" fill="#48CE65"/>
</svg>
