<?xml version="1.0" encoding="utf-8"?>
<svg viewBox="80.288 68.762 172.506 44.204" xmlns="http://www.w3.org/2000/svg">
  <path d="M 120.702 100.196 L 120.702 95.563 L 122.851 95.563 L 122.851 83.452 L 120.702 83.452 L 120.702 78.819 L 139.716 78.819 L 139.716 87.319 L 135.285 87.319 L 134.815 83.384 L 129.672 83.384 L 129.672 87.01 L 133.298 87.01 L 133.298 91.575 L 129.672 91.575 L 129.672 95.631 L 134.815 95.631 L 135.285 91.105 L 139.716 91.105 L 139.716 100.196 Z" style="fill: rgb(0, 53, 97); white-space: pre;"/>
  <path d="M 146.981 100.438 Q 145.598 100.438 144.517 99.88 Q 143.436 99.323 142.825 98.343 Q 142.214 97.363 142.214 96.087 Q 142.214 94.1 143.745 92.918 Q 145.276 91.737 147.827 91.737 Q 148.713 91.737 149.519 91.844 Q 150.325 91.951 151.157 92.207 L 151.157 91.911 Q 151.157 90.689 150.412 90.139 Q 149.667 89.588 148.029 89.588 Q 146.847 89.588 145.638 89.897 Q 144.43 90.206 143.436 90.756 L 143.074 90.595 L 143.074 86.674 Q 144.484 86.124 146.276 85.842 Q 148.069 85.56 149.882 85.56 Q 153.896 85.56 155.75 86.903 Q 157.603 88.245 157.603 91.213 L 157.603 96.168 L 159.348 96.168 L 159.348 100.196 L 152.017 100.196 L 151.359 98.088 Q 150.728 99.189 149.566 99.813 Q 148.405 100.438 146.981 100.438 Z M 149.788 97 Q 150.15 97 150.546 96.873 Q 150.942 96.745 151.157 96.53 L 151.157 94.288 Q 150.822 94.14 150.479 94.086 Q 150.137 94.033 149.841 94.033 Q 149.156 94.033 148.693 94.436 Q 148.23 94.838 148.23 95.51 Q 148.23 96.195 148.66 96.597 Q 149.089 97 149.788 97 Z" style="fill: rgb(0, 53, 97); white-space: pre;"/>
  <path d="M 169.321 100.438 Q 167.952 100.438 166.663 100.115 Q 165.374 99.793 164.38 99.189 L 163.964 100.196 L 161.01 100.196 L 161.01 95.147 L 164.447 95.147 Q 164.756 96.195 165.521 96.799 Q 166.287 97.403 167.186 97.403 Q 168.368 97.403 168.368 96.517 Q 168.368 95.872 167.838 95.523 Q 167.307 95.174 166.468 94.932 Q 165.629 94.691 164.689 94.409 Q 163.749 94.127 162.91 93.637 Q 162.07 93.146 161.54 92.294 Q 161.01 91.441 161.01 90.058 Q 161.01 88.809 161.674 87.789 Q 162.339 86.768 163.689 86.157 Q 165.038 85.546 167.079 85.546 Q 168.395 85.546 169.516 85.822 Q 170.637 86.097 171.618 86.701 L 171.94 85.801 L 174.894 85.801 L 174.894 90.421 L 171.456 90.421 Q 171.107 89.4 170.456 88.923 Q 169.805 88.447 169.053 88.447 Q 167.737 88.447 167.737 89.252 Q 167.737 89.816 168.281 90.145 Q 168.825 90.474 169.677 90.716 Q 170.53 90.958 171.483 91.267 Q 172.437 91.575 173.289 92.099 Q 174.142 92.623 174.686 93.496 Q 175.23 94.368 175.23 95.765 Q 175.23 97.9 173.692 99.169 Q 172.155 100.438 169.321 100.438 Z" style="fill: rgb(0, 53, 97); white-space: pre;"/>
  <path d="M 179.833 105.54 L 179.833 101.512 L 183.15 101.512 L 183.633 100.559 L 177.241 89.83 L 175.966 89.83 L 175.966 85.801 L 185.674 85.801 L 185.674 89.83 L 184.063 89.83 L 186.641 94.503 L 188.964 89.83 L 187.353 89.83 L 187.353 85.801 L 194.16 85.801 L 194.16 89.83 L 192.885 89.83 L 187.071 101.512 L 189.018 101.512 L 189.018 105.54 Z" style="fill: rgb(0, 53, 97); white-space: pre;"/>
  <path d="M 195.674 100.196 L 195.674 95.563 L 197.822 95.563 L 197.822 83.452 L 195.674 83.452 L 195.674 78.819 L 207.208 78.819 Q 211.586 78.819 213.815 80.518 Q 216.044 82.216 216.044 85.6 Q 216.044 88.876 213.828 90.562 Q 211.612 92.247 207.342 92.247 L 204.643 92.247 L 204.643 95.563 L 208.538 95.563 L 208.538 100.196 Z M 206.429 83.317 L 204.643 83.317 L 204.643 88.151 L 206.295 88.151 Q 207.665 88.151 208.35 87.574 Q 209.034 86.997 209.034 85.734 Q 209.034 84.459 208.37 83.888 Q 207.705 83.317 206.429 83.317 Z" style="fill: rgb(0, 53, 97); white-space: pre;"/>
  <path d="M 221.265 100.438 Q 219.882 100.438 218.801 99.88 Q 217.72 99.323 217.109 98.343 Q 216.498 97.363 216.498 96.087 Q 216.498 94.1 218.029 92.918 Q 219.56 91.737 222.111 91.737 Q 222.997 91.737 223.803 91.844 Q 224.609 91.951 225.441 92.207 L 225.441 91.911 Q 225.441 90.689 224.696 90.139 Q 223.951 89.588 222.312 89.588 Q 221.131 89.588 219.922 89.897 Q 218.714 90.206 217.72 90.756 L 217.358 90.595 L 217.358 86.674 Q 218.767 86.124 220.56 85.842 Q 222.353 85.56 224.165 85.56 Q 228.18 85.56 230.033 86.903 Q 231.886 88.245 231.886 91.213 L 231.886 96.168 L 233.632 96.168 L 233.632 100.196 L 226.3 100.196 L 225.642 98.088 Q 225.011 99.189 223.85 99.813 Q 222.688 100.438 221.265 100.438 Z M 224.071 97 Q 224.434 97 224.83 96.873 Q 225.226 96.745 225.441 96.53 L 225.441 94.288 Q 225.105 94.14 224.763 94.086 Q 224.421 94.033 224.125 94.033 Q 223.44 94.033 222.977 94.436 Q 222.514 94.838 222.514 95.51 Q 222.514 96.195 222.944 96.597 Q 223.373 97 224.071 97 Z" style="fill: rgb(0, 53, 97); white-space: pre;"/>
  <path d="M 237.773 105.54 L 237.773 101.512 L 241.089 101.512 L 241.573 100.559 L 235.181 89.83 L 233.905 89.83 L 233.905 85.801 L 243.614 85.801 L 243.614 89.83 L 242.002 89.83 L 244.58 94.503 L 246.903 89.83 L 245.292 89.83 L 245.292 85.801 L 252.1 85.801 L 252.1 89.83 L 250.824 89.83 L 245.01 101.512 L 246.957 101.512 L 246.957 105.54 Z" style="fill: rgb(0, 53, 97); white-space: pre;"/>
  <path d="M 80.288 88.164 C 90.189 78.291 103.464 79.124 103.464 79.124 L 118.741 82.418 C 104.418 81.581 95.876 92.319 95.876 92.319 L 80.288 88.164 Z M 98.803 81.261 C 96.409 81.261 94.51 81.819 94.51 82.506 C 94.51 83.193 96.452 83.749 98.803 83.749 C 101.153 83.749 103.095 83.214 103.095 82.506 C 103.095 81.798 101.144 81.261 98.794 81.261 L 98.803 81.261 Z" fill="#48CE65"/>
  <path d="M 118.292 84.093 C 110.17 84.951 101.522 90.903 95.876 99.777 L 82.447 96.2 L 83.167 98.878 L 95.876 102.263 C 103.408 90.431 112.089 86.065 118.143 84.651 L 118.292 84.093 Z" fill="#48CE65"/>
  <path d="M 118.593 82.964 C 106.338 82.689 97.759 91.834 95.876 94.792 L 81.001 90.83 L 81.724 93.521 L 95.876 97.292 C 99.641 91.375 108.254 83.825 118.442 83.535 L 118.593 82.964 Z" fill="#48CE65"/>
</svg>